# xmcd CD database file
#
# Track frame offsets:
#	150
#	8277
#	25825
#	44950
#	62750
#	83955
#	108572
#	117985
#	135087
#	160112
#	176117
#	197462
#	208847
#	231780
#	251260
#	264575
#	280685
#	287890
#	303602
#	330957
#
# Disc length: 4647 seconds
#
# Revision: 2
# Processed by: cddbd v1.5.2PL0 Copyright (c) Steve Scherf et al.
# Submitted via: CDex 1.51
#
DISCID=14122514
DTITLE=Soul Note Story - Soul Note Story
DYEAR=2004
DGENRE=Jazz
TTITLE0=THE ORIGINAL CHICO HAMILTON QUINTET - I want to be happy
TTITLE1=LEE KONITZ NONET - Moon Dream
TTITLE2=JAKI BYARD - Stage1/Stage2
TTITLE3=BILLY BANG featuring SUN RA - Foggy day in London town
TTITLE4=CHARLIE HADEN,GERI ALLEN, PAUL MOTIAN - Sandino
TTITLE5=ARNETT COBB, JIMMY HEATH, JOE HENDERSON - I got rhythm
TTITLE6=THE HERBIE NICHOLS PROJECT -  Idh
TTITLE7=MENGELBERG, LACY, LEWIS, GORTER, BENNIK - Hangrover triangle
TTITLE8=CHARLIE HADEN con  CHET BAKER ecc... - My funny Valentine
TTITLE9=PAUL MOTIAN - Abacus
TTITLE10=ART BLAKEY AND THE JAZZ MESSENGERS - Love walked in
TTITLE11=GRAVES, CYRILLE, CLARKE, MOYE - Drum song for Leadbelly
TTITLE12=MAX ROACH QUARTET - Magic
TTITLE13=MAL WALDRON, STEVE LACY - Azure
TTITLE14=DAVE DOUGLAS - Mirrors
TTITLE15=GEORGE ADAMS, DON PULLEN - Places and faces
TTITLE16=CECIL TAYLOR - For the deatn
TTITLE17=HAMIET BLUIETT - Nu tune
TTITLE18=ARCHIE SHEEP - The 4th world
TTITLE19=JIMMY GIUFFRE, PAUL BLEY, STEVE SWALLOW - Restless
EXTD=YEAR: 2004
EXTT0=
EXTT1=
EXTT2=
EXTT3=
EXTT4=
EXTT5=
EXTT6=
EXTT7=
EXTT8=
EXTT9=
EXTT10=
EXTT11=
EXTT12=
EXTT13=
EXTT14=
EXTT15=
EXTT16=
EXTT17=
EXTT18=
EXTT19=
PLAYORDER=
